<?xml version="1.0" encoding="utf-8"?>
<!-- Generator: Adobe Illustrator 15.0.0, SVG Export Plug-In . SVG Version: 6.00 Build 0)  -->
<!DOCTYPE svg PUBLIC "-//W3C//DTD SVG 1.1//EN" "http://www.w3.org/Graphics/SVG/1.1/DTD/svg11.dtd">
<svg version="1.1" id="Layer_1" xmlns="http://www.w3.org/2000/svg" xmlns:xlink="http://www.w3.org/1999/xlink" x="0px" y="0px"
	 width="28px" height="28px" viewBox="0 0 28 28" enable-background="new 0 0 28 28" xml:space="preserve">
<rect x="-1572.331" y="-88.235" fill="#007FB9" width="4.664" height="4.665"/>
<path fill="#FFFFFF" d="M21.686,6.314c-3.51-3.508-9.219-3.508-12.729,0c-3.184,3.184-3.469,8.175-0.875,11.694l-4.004,4.004
	c-0.527,0.527-0.527,1.382,0,1.909c0.527,0.526,1.383,0.527,1.91,0l4.004-4.004c3.52,2.594,8.51,2.309,11.693-0.876
	C25.193,15.533,25.193,9.823,21.686,6.314z M19.775,17.133c-2.455,2.457-6.453,2.457-8.908,0c-2.457-2.455-2.457-6.452,0-8.909
	c2.455-2.456,6.453-2.455,8.908,0C22.232,10.681,22.232,14.678,19.775,17.133z"/>
</svg>
